HIERARCHY
ROOT Hips
{
	OFFSET 0.0000 0.0000 0.0000
	CHANNELS 6 Xposition Yposition Zposition Zrotation Xrotation Yrotation
	JOINT Ab
	{
		OFFSET -0.0000 8.0846 -0.0000
		CHANNELS 3 Zrotation Xrotation Yrotation
		JOINT Chest
		{
			OFFSET -0.0000 25.0068 -0.0000
			CHANNELS 3 Zrotation Xrotation Yrotation
			JOINT Neck
			{
				OFFSET -0.0000 25.0068 0.0000
				CHANNELS 3 Zrotation Xrotation Yrotation
				JOINT Head
				{
					OFFSET -0.0000 10.7556 0.0000
					CHANNELS 3 Zrotation Xrotation Yrotation
					End Site
					{
						OFFSET -0.0000 16.6222 0.0000
					}
				}
			}
			JOINT LeftCollar
			{
				OFFSET -0.0000 25.0068 0.0000
				CHANNELS 3 Zrotation Xrotation Yrotation
				JOINT LeftShoulder
				{
					OFFSET 19.5556 -0.0000 0.0000
					CHANNELS 3 Zrotation Xrotation Yrotation
					JOINT LeftElbow
					{
						OFFSET 27.1828 0.0000 0.0000
						CHANNELS 3 Zrotation Xrotation Yrotation
						JOINT LeftWrist
						{
							OFFSET 23.3157 0.0000 0.0000
							CHANNELS 3 Zrotation Xrotation Yrotation
							End Site
							{
								OFFSET 0.0000 -14.6667 0.0000
							}
						}
					}
				}
			}
			JOINT RightCollar
			{
				OFFSET -0.0000 25.0068 0.0000
				CHANNELS 3 Zrotation Xrotation Yrotation
				JOINT RightShoulder
				{
					OFFSET -19.5556 0.0000 0.0000
					CHANNELS 3 Zrotation Xrotation Yrotation
					JOINT RightElbow
					{
						OFFSET -27.1828 0.0000 0.0000
						CHANNELS 3 Zrotation Xrotation Yrotation
						JOINT RightWrist
						{
							OFFSET -23.3157 0.0000 0.0000
							CHANNELS 3 Zrotation Xrotation Yrotation
							End Site
							{
								OFFSET -0.0000 -14.6667 0.0000
							}
						}
					}
				}
			}
		}
	}
	JOINT LeftHip
	{
		OFFSET 11.7333 0.0000 0.0000
		CHANNELS 3 Zrotation Xrotation Yrotation
		JOINT LeftKnee
		{
			OFFSET -0.0000 -40.8688 0.0000
			CHANNELS 3 Zrotation Xrotation Yrotation
			JOINT LeftAnkle
			{
				OFFSET -0.0000 -44.4337 0.0000
				CHANNELS 3 Zrotation Xrotation Yrotation
				End Site
				{
					OFFSET -0.0000 -4.8889 16.6222
				}
			}
		}
	}
	JOINT RightHip
	{
		OFFSET -11.7333 0.0000 0.0000
		CHANNELS 3 Zrotation Xrotation Yrotation
		JOINT RightKnee
		{
			OFFSET -0.0000 -40.8688 0.0000
			CHANNELS 3 Zrotation Xrotation Yrotation
			JOINT RightAnkle
			{
				OFFSET -0.0000 -44.4337 0.0000
				CHANNELS 3 Zrotation Xrotation Yrotation
				End Site
				{
					OFFSET -0.0000 -4.8889 16.6222
				}
			}
		}
	}
}
MOTION
Frames: 22
Frame Time: 0.010000
-5.0367 88.8135 189.4723 2.7519 0.0506 175.5421 1.3966 359.5941 358.6274 358.7585 12.6342 358.7597 1.8730 356.3353 0.6172 0.9625 22.7328 0.3474 339.1948 358.5260 7.9773 301.5113 32.4234 352.6914 16.5527 354.4690 323.3134 81.6580 1.5547 341.6341 22.3684 359.3914 356.8828 59.3586 42.9535 9.8885 337.8057 354.3172 28.3561 278.4546 353.6551 18.5545 1.0057 356.7306 356.7240 358.6965 11.5557 358.5398 0.3682 352.8243 21.9706 1.7492 350.6570 0.2034 359.1243 19.3130 9.6407 357.9855 346.1414 338.4029 
-5.0546 88.8156 189.4673 2.7505 0.0373 175.5676 1.3741 359.6081 358.6241 358.7750 12.6353 358.7545 1.9075 356.3176 0.5805 0.9192 22.7371 0.3301 339.1978 358.5330 8.0047 301.5262 32.5933 352.6461 16.6205 354.4485 323.3760 81.6841 1.4955 341.7301 22.3479 359.3674 356.8592 59.3774 43.0023 9.8871 337.7229 354.3057 28.3463 278.5273 353.5310 18.4680 0.9989 356.7011 356.6993 358.6849 11.5761 358.5564 0.4677 352.8562 21.9697 1.7264 350.6542 0.1891 359.1386 19.3017 9.6172 357.9491 346.1649 338.4160 
-5.0761 88.8164 189.4569 2.7436 0.0385 175.5872 1.3425 359.6177 358.6232 358.7966 12.6715 358.7542 1.9156 356.2961 0.5607 0.9221 22.7128 0.3049 339.1963 358.5233 8.0337 301.5354 32.7291 352.5983 16.7223 354.4086 323.3965 81.6628 1.4801 341.8451 22.3433 359.3862 356.8461 59.3052 42.9599 9.9499 337.6857 354.3402 27.9894 278.5428 352.4855 17.7483 0.9787 356.6864 356.7076 358.6818 11.6101 358.5192 0.4002 352.7832 21.9645 1.7016 350.6704 0.2025 359.1445 19.2870 9.6024 358.0050 346.1127 338.4045 
-5.0993 88.8179 189.4474 2.7416 0.0319 175.6020 1.3035 359.6297 358.6374 358.8372 12.6816 358.7637 1.9230 356.2999 0.5352 0.9189 22.6863 0.2745 339.1851 358.5399 8.0051 301.4866 32.6193 352.6273 16.6454 354.4465 323.3471 81.7144 1.5151 341.8063 22.3294 359.3666 356.8406 59.2931 42.9336 9.9461 337.6777 354.3671 28.0569 278.5396 352.5344 17.8558 0.9640 356.6700 356.6845 358.6740 11.6332 358.5189 0.5585 352.8274 21.9979 1.6842 350.6881 0.2310 359.1520 19.2569 9.5424 358.3533 345.8961 338.2888 
-5.1255 88.8198 189.4411 2.7341 0.0089 175.6121 1.2850 359.6368 358.6361 358.8425 12.6724 358.7618 1.9221 356.3267 0.5038 0.9323 22.6432 0.2482 339.1997 358.5262 7.9826 301.4157 32.5733 352.6782 16.6713 354.4611 323.2969 81.7185 1.4971 341.7787 22.3323 359.3826 356.8350 59.2676 42.9031 9.9491 338.1479 354.4951 28.4197 277.8761 353.5244 19.6951 0.9446 356.6313 356.6814 358.6637 11.6688 358.5191 0.4403 352.7596 21.9779 1.6558 350.6740 0.2684 359.1758 19.2487 9.4842 358.0411 346.0997 338.4585 
-5.1517 88.8218 189.4312 2.7351 0.0077 175.6300 1.2617 359.6600 358.6416 358.8571 12.6877 358.7649 1.9292 356.2977 0.4894 0.9429 22.6465 0.2032 339.2122 358.5309 7.9469 301.3421 32.4084 352.7409 16.5527 354.4938 323.2212 81.7951 1.5043 341.6208 22.3267 359.3689 356.8252 59.2359 42.9143 9.9700 338.1306 354.4277 28.4702 277.9999 353.5615 19.7313 0.9296 356.5994 356.7175 358.6611 11.7297 358.4793 0.4812 352.7348 21.9792 1.6367 350.6897 0.2851 359.1844 19.2329 9.4509 358.1273 346.0681 338.4952 
-5.1814 88.8233 189.4178 2.7355 0.0094 175.6367 1.2518 359.6912 358.6479 358.8469 12.6880 358.7741 1.9394 356.2920 0.4637 0.9663 22.6386 0.1710 339.2164 358.5309 7.9834 301.3525 32.5807 352.7128 16.6738 354.4119 323.1745 81.7187 1.6280 341.8661 22.3326 359.3789 356.8284 59.2239 42.9045 9.9618 338.1622 354.4114 28.4930 278.0049 353.5562 19.7969 0.9128 356.5936 356.6987 358.6507 11.7552 358.4797 0.4864 352.7044 22.0040 1.6149 350.7080 0.3079 359.1941 19.2132 9.4032 358.0943 346.0674 338.4937 
-5.2149 88.8262 189.4153 2.7303 359.9680 175.6504 1.2245 359.6914 358.6651 358.8571 12.6856 358.7889 1.9430 356.2759 0.3991 0.9944 22.6374 0.1696 339.2244 358.5395 7.9400 301.2886 32.4203 352.7611 16.7236 354.3389 322.7830 81.5895 2.2784 342.4789 22.3266 359.3657 356.8184 59.2304 42.9019 9.9480 338.1458 354.3720 28.4980 278.0250 353.4358 19.8705 0.8872 356.5389 356.7065 358.6543 11.7746 358.4697 0.4134 352.6592 22.0325 1.5861 350.6676 0.3152 359.2031 19.2149 9.3766 358.2156 346.0501 338.5373 
-5.2507 88.8279 189.4068 2.7350 359.9421 175.6656 1.2277 359.7081 358.6644 358.8489 12.6708 358.7906 1.9085 356.3140 0.3628 1.0604 22.6076 0.0894 339.2244 358.5310 7.9385 301.2652 32.4558 352.7805 16.7519 354.3261 322.7535 81.5820 2.2778 342.5143 22.3276 359.3815 356.8205 59.2329 42.8513 9.9161 338.2036 354.4080 28.4990 277.9734 353.3109 19.9766 0.8761 356.5147 356.6633 358.6334 11.7735 358.5315 0.4204 352.6685 21.9903 1.5637 350.6528 0.3356 359.2123 19.2146 9.3400 358.3591 346.0220 338.5756 
-5.2944 88.8285 189.4008 2.7336 359.9116 175.6946 1.2426 359.7297 358.6539 358.8168 12.6444 358.7833 1.8761 356.3842 0.2588 1.0940 22.5672 0.0522 339.2376 358.5384 7.9201 301.1981 32.3316 352.8316 16.6717 354.3487 322.7015 81.6504 2.2703 342.4094 22.3283 359.3659 356.8407 59.2553 42.8329 9.8527 338.1403 354.3889 28.5668 278.1038 353.3104 19.9289 0.8468 356.4731 356.6437 358.6309 11.7917 358.5194 0.5248 352.6938 21.9816 1.5204 350.6307 0.3606 359.2328 19.2421 9.2987 358.1943 346.0311 338.5773 
-5.3361 88.8287 189.3877 2.7375 359.9042 175.6991 1.2495 359.7547 358.6609 358.7885 12.6459 358.7919 1.8658 356.3865 0.2665 1.1335 22.5653 0.0100 339.2525 358.5333 7.9188 301.1297 32.2078 352.8741 16.6052 354.3683 322.6317 81.7249 2.2884 342.2841 22.3256 359.3814 356.8759 59.2588 42.8228 9.8186 338.1611 354.3699 28.5883 278.2040 353.2786 19.9268 0.8250 356.4611 356.6609 358.6286 11.8139 358.4932 0.4856 352.6547 22.0146 1.4896 350.6305 0.3759 359.2504 19.2392 9.2818 358.2308 346.0201 338.5710 
-5.3796 88.8304 189.3784 2.7451 359.8839 175.6992 1.2301 359.7638 358.6791 358.7989 12.6658 358.8109 1.8659 356.3711 0.2466 1.1480 22.5571 359.9687 339.2510 358.5505 7.9060 301.0950 32.0800 352.8815 16.4945 354.4071 322.5904 81.7841 2.2741 342.1488 22.3127 359.3931 356.8741 59.2005 42.9029 9.8738 338.0919 354.3612 28.5541 278.2971 353.2391 19.8245 0.8057 356.4462 356.6679 358.6286 11.8122 358.5097 0.5176 352.6599 21.9785 1.4656 350.6146 0.4039 359.2609 19.2408 9.2720 358.5897 345.9441 338.6627 
-5.4274 88.8308 189.3665 2.7628 359.8750 175.6951 1.2278 359.8027 358.6974 358.7990 12.6553 358.8286 1.8789 356.3514 0.2209 1.1366 22.5945 359.9338 339.2359 358.5132 7.9973 301.1667 32.4895 352.7933 16.7475 354.2741 322.6789 81.6745 2.2007 342.3928 22.2965 359.3808 356.8682 59.1774 43.0430 9.9112 337.9043 354.3075 28.4421 278.3112 353.3051 19.2998 0.7975 356.4503 356.6844 358.6234 11.8039 358.4768 0.5003 352.6221 22.0260 1.4452 350.6149 0.4480 359.2822 19.2346 9.2478 358.2745 345.9891 338.6059 
-5.4770 88.8317 189.3493 2.7711 359.8777 175.6909 1.2431 359.8679 358.6967 358.7595 12.6048 358.8331 1.8713 356.3808 0.2038 1.1551 22.5895 359.9100 339.2277 358.5066 8.0846 301.2301 32.8082 352.7335 16.7535 354.3120 322.8518 82.3069 1.9846 342.7905 22.3133 359.3832 356.8838 59.1857 43.0193 9.8318 337.9397 354.3099 28.5620 277.9585 353.7636 19.3326 0.7765 356.4677 356.6881 358.6155 11.7980 358.4649 0.5061 352.6029 22.0334 1.4174 350.6303 0.4683 359.2906 19.2279 9.2369 358.3124 345.9569 338.6155 
-5.5309 88.8326 189.3293 2.7758 359.8707 175.6816 1.2535 359.8973 358.6991 358.7182 12.6021 358.8407 1.8724 356.3774 0.2031 1.1586 22.6078 359.9155 339.2275 358.5164 8.1906 301.2767 33.0216 352.6184 16.6807 354.3931 323.0268 83.1938 1.7417 343.2148 22.3193 359.3858 356.9128 59.1836 42.9767 9.7852 337.9112 354.2955 28.5953 278.3236 353.4623 19.3265 0.7505 356.4831 356.6789 358.6011 11.7813 358.4922 0.4876 352.5980 22.0240 1.3831 350.6469 0.5263 359.3099 19.2044 9.1944 358.3417 345.9479 338.6267 
-5.5866 88.8338 189.3114 2.7802 359.8535 175.6640 1.2419 359.9136 358.7095 358.7007 12.6089 358.8531 1.8658 356.3851 0.2062 1.2066 22.6011 359.9085 339.2348 358.4910 8.2571 301.2675 33.0886 352.5730 16.7500 354.3730 323.0559 83.1476 1.7085 343.2192 22.3297 359.4059 356.9104 59.1341 42.7985 9.7997 337.9620 354.3158 28.6434 278.8571 353.0325 19.3917 0.7239 356.4837 356.6873 358.5927 11.7693 358.5020 0.5162 352.5898 22.0295 1.3536 350.6472 0.5999 359.3214 19.1885 9.1669 358.3309 345.9582 338.6194 
-5.6430 88.8360 189.2923 2.7888 359.8329 175.6527 1.2394 359.9268 358.7159 358.6813 12.6208 358.8615 1.8504 356.3903 0.1999 1.2608 22.5709 359.8972 339.2396 358.4892 8.2635 301.2488 33.0439 352.5994 16.6734 354.4151 323.0538 83.2920 1.6404 343.2212 22.3399 359.3991 356.9036 59.1017 42.7160 9.7928 337.9559 354.2962 28.7596 278.9563 353.0789 19.4108 0.7030 356.4711 356.7039 358.5808 11.7798 358.5058 0.5613 352.5546 22.0248 1.3279 350.6531 0.6718 359.3392 19.1532 9.1064 358.3390 345.9553 338.6240 
-5.7034 88.8384 189.2699 2.8001 359.8140 175.6396 1.2266 359.9315 358.7308 358.6742 12.6511 358.8784 1.8604 356.3653 0.1952 1.2677 22.5752 359.8843 339.2523 358.5064 8.1903 301.1488 32.6951 352.7023 16.4668 354.4968 322.9486 83.4098 1.6271 343.0183 22.3320 359.3890 356.8986 59.0894 42.7046 9.7781 337.9529 354.2869 28.8361 278.9721 353.0833 19.4387 0.6808 356.4681 356.7194 358.5702 11.7805 358.5020 0.6592 352.5580 22.0399 1.3014 350.6674 0.7557 359.3619 19.1094 9.0282 358.3765 345.9466 338.6538 
-5.7667 88.8401 189.2499 2.8144 359.7855 175.6191 1.2156 359.9554 358.7411 358.6689 12.6242 358.8897 1.8541 356.3919 0.1847 1.2755 22.5639 359.8692 339.2523 358.5102 8.1456 301.0787 32.5349 352.8016 16.3869 354.5003 322.8704 83.4881 1.6364 342.9658 22.3211 359.3881 356.9098 59.1238 42.7057 9.7137 338.0008 354.2705 28.9291 278.9108 353.2183 19.7349 0.6629 356.4597 356.7090 358.5499 11.7713 358.5241 0.6950 352.5566 22.0503 1.2829 350.6661 0.8056 359.3572 19.0786 8.9971 358.4043 345.9292 338.6974 
-5.8350 88.8413 189.2334 2.8319 359.7434 175.6091 1.2272 359.9805 358.7360 358.6379 12.5856 358.8864 1.8409 356.3960 0.1827 1.2879 22.5945 359.8672 339.2499 358.5115 8.1895 301.0913 32.6282 352.8010 16.4632 354.4493 322.8891 83.2661 1.6289 342.9402 22.3213 359.3830 356.8918 59.0923 42.8455 9.7628 338.0031 354.2616 28.8781 278.8980 353.3256 20.0125 0.6425 356.4245 356.6815 358.5315 11.7816 358.5426 0.6716 352.5068 22.0709 1.2599 350.6540 0.8367 359.3592 19.0361 8.9720 358.4361 345.9440 338.7254 
-5.9087 88.8420 189.2167 2.8477 359.7046 175.5916 1.2196 359.9809 358.7423 358.6286 12.6110 358.8940 1.8348 356.3512 0.1873 1.2573 22.6436 359.8809 339.2393 358.5022 8.2516 301.1348 32.8641 352.7470 16.5999 354.3919 322.9820 83.3136 1.5685 343.1268 22.3034 359.3971 356.8848 59.0178 42.9227 9.8473 338.0170 354.2632 28.8290 278.7735 353.2985 19.8383 0.6116 356.3894 356.6774 358.5293 11.7979 358.5449 0.6551 352.4786 22.0753 1.2301 350.6441 0.8829 359.3684 18.9930 8.9591 358.4753 345.9706 338.7234 
-5.9880 88.8419 189.2016 2.8570 359.6635 175.5497 1.2092 359.9903 358.7634 358.6053 12.6183 358.9189 1.8268 356.3295 0.1830 1.2506 22.6602 359.8752 339.2646 358.5226 8.1134 301.0941 33.1035 352.9726 16.9117 354.2511 322.9671 83.1067 1.5491 343.4374 22.2849 359.3870 356.8948 59.0166 42.9045 9.8227 338.1609 354.2987 28.9267 278.3720 353.3037 20.3493 0.5746 356.3585 356.6636 358.5148 11.8053 358.5818 0.6448 352.4629 22.0916 1.1946 350.6178 0.9178 359.3705 18.9653 8.9344 358.5146 345.9664 338.7594 
